:FULLY-SPECIFIED
:FORCE-ALL-JOINTS-BE-3DOF
:DEGREES
1053
root 1.20515 15.1607 32.5541 4.88791 -3.34648 3.42146
lfemur 8.83634 0.4138 5.72306
ltibia -0.105337 0 0
lfoot -30.3375 -11.1624 0.000405228
ltoes -34.2996 0 0
rfemur -30.9996 -15.6516 -6.2834
rtibia 50.0032 -0 0
rfoot -21.8605 5.354 7.03017e-005
rtoes -40.9643 0 0
lowerback -1.84129 -0.0611095 -0.21761
upperback -0.478946 -0.0435389 -6.03534
thorax 0.536436 -0.023188 -6.13432
lowerneck -7.03698 0.715947 6.50909
upperneck 1.32792 0.2666 3.71164
head 1.61213 0.262473 0.0745968
lclavicle 2.18663e-015 2.54444e-014 0
lhumerus -58.7432 -46.9387 115.436
lradius 55.8205 -0 0
lwrist 25.585 0 0
lhand 37.4532 25.2955 1.27075e-005
lfingers 7.12502 -0 0
lthumb 60.2525 38.8079 1.11914e-005
rclavicle 2.18663e-015 2.54444e-014 0
rhumerus 2.08738 -23.5096 0.638126
rradius 27.4807 -0 0
rwrist -9.68076 0 0
rhand -30.505 -41.9985 3.11833e-005
rfingers 7.12502 -0 0
rthumb -3.80514 -71.9443 3.01045e-005
1054
root 1.20708 15.1608 32.5577 4.89164 -3.35065 3.41705
lfemur 8.82579 0.420577 5.71164
ltibia -0.0563634 0 0
lfoot -30.3689 -11.1562 0.000213297
ltoes -34.2958 0 0
rfemur -30.982 -15.6346 -6.29153
rtibia 49.9909 -0 0
rfoot -21.8517 5.35789 3.47714e-005
rtoes -40.9382 0 0
lowerback -1.8527 -0.0598214 -0.230879
upperback -0.47871 -0.0411378 -6.03517
thorax 0.543357 -0.0218918 -6.12651
lowerneck -7.04002 0.711621 6.50935
upperneck 1.33102 0.260149 3.71834
head 1.61361 0.259566 0.0764351
lclavicle 2.18663e-015 2.54444e-014 0
lhumerus -58.7383 -46.942 115.438
lradius 55.8184 -0 0
lwrist 25.5916 0 0
lhand 37.4604 25.3017 6.35877e-006
lfingers 7.12502 -0 0
lthumb 60.2587 38.8075 6.00663e-006
rclavicle 2.18663e-015 2.54444e-014 0
rhumerus 2.07316 -23.4918 0.642743
rradius 27.4795 -0 0
rwrist -9.66312 0 0
rhand -30.5025 -41.9746 2.04919e-005
rfingers 7.12502 -0 0
rthumb -3.80266 -71.9204 1.97491e-005
1055
root 1.20902 15.1608 32.5613 4.89526 -3.3544 363.412
lfemur 8.81127 0.427112 5.69968
ltibia -3.02153e-014 0 0
lfoot -30.4036 -11.1476 0
ltoes -34.2928 0 0
rfemur -30.964 -15.6172 -6.29884
rtibia 49.9779 0 0
rfoot -21.8435 5.35955 0
rtoes -40.916 0 0
lowerback -1.86352 -0.0585045 -0.243808
upperback -0.478533 -0.038728 -6.03469
thorax 0.549891 -0.0205969 -6.11856
lowerneck -7.045 0.707426 6.50905
upperneck 1.33724 0.253593 3.72491
head 1.61646 0.256736 0.0783323
lclavicle 2.18663e-015 2.54444e-014 0
lhumerus -58.7326 -46.9443 115.439
lradius 55.8165 0 0
lwrist 25.5971 0 0
lhand 37.4675 25.3077 0
lfingers 7.12502 0 0
lthumb 60.2647 38.8071 0
rclavicle 2.18663e-015 2.54444e-014 0
rhumerus 2.05959 -23.473 0.646342
rradius 27.4787 0 0
rwrist -9.64481 0 0
rhand -30.5 -41.9501 0
rfingers 7.12502 0 0
rthumb -3.80028 -791.896 0
1056
root 1.21096 15.1611 32.5653 4.89898 -3.35816 3.40636
lfemur 8.79326 0.433897 5.68677
ltibia 0.0640037 -0 0
lfoot -30.442 -11.1369 -0.000233652
ltoes -34.2902 0 0
rfemur -30.9451 -15.5988 -6.30584
rtibia 49.964 -0 0
rfoot -21.8356 5.35956 -3.43977e-005
rtoes -40.8961 0 0
lowerback -1.87429 -0.0571555 -0.256889
upperback -0.478424 -0.036277 -6.03393
thorax 0.55633 -0.019284 -6.11023
lowerneck -7.05155 0.703228 6.50824
upperneck 1.34595 0.246803 3.73162
head 1.62041 0.253898 0.080356
lclavicle 8.94531e-016 3.49861e-014 0
lhumerus -58.726 -46.9458 115.44
lradius 55.8146 -0 0
lwrist 25.6021 0 0
lhand 37.4747 25.3137 -6.56891e-006
lfingers 7.12502 -0 0
lthumb 60.2708 38.8065 -6.64784e-006
rclavicle 8.94531e-016 3.49861e-014 0
rhumerus 2.04618 -23.4527 0.649209
rradius 27.4782 -0 0
rwrist -9.62549 0 0
rhand -30.4976 -41.9246 -2.65447e-005
rfingers 7.12502 -0 0
rthumb -3.798 -71.8705 -2.55563e-005
1057
root 1.21289 15.1615 32.5692 4.90302 -3.36241 3.40027
lfemur 8.77247 0.441442 5.67254
ltibia 0.135397 -0 0
lfoot -30.4842 -11.1246 -0.000485015
ltoes -34.2877 0 0
rfemur -30.9251 -15.579 -6.31305
rtibia 49.9489 -0 0
rfoot -21.8277 5.35858 -6.88441e-005
rtoes -40.8766 0 0
lowerback -1.88552 -0.0557829 -0.270575
upperback -0.478395 -0.0337686 -6.03293
thorax 0.562954 -0.0179424 -6.10129
lowerneck -7.05919 0.698908 6.50697
upperneck 1.35638 0.239691 3.7387
head 1.62512 0.25098 0.0825667
lclavicle 8.94531e-016 3.49861e-014 0
lhumerus -58.7186 -46.9467 115.44
lradius 55.8124 -0 0
lwrist 25.607 0 0
lhand 37.4823 25.3199 -1.36205e-005
lfingers 7.12502 -0 0
lthumb 60.2774 38.8057 -1.36391e-005
rclavicle 8.94531e-016 3.49861e-014 0
rhumerus 2.03252 -23.4308 0.651644
rradius 27.4779 -0 0
rwrist -9.60492 0 0
rhand -30.4954 -41.8976 -5.46261e-005
rfingers 7.12502 -0 0
rthumb -3.79583 -71.8436 -5.2597e-005
